<mxfile host="app.diagrams.net" modified="2023-11-16T17:03:03.107Z" agent="Mozilla/5.0 (Windows NT 10.0; Win64; x64; rv:109.0) Gecko/20100101 Firefox/119.0" etag="8lr5J7hOsHEFpJFZG6Lp" version="22.1.2" type="device">
  <diagram name="Page-1" id="Gtrr2AcfLLwvDN4QfJdU">
    <mxGraphModel dx="1050" dy="538" grid="1" gridSize="10" guides="1" tooltips="1" connect="1" arrows="1" fold="1" page="1" pageScale="1" pageWidth="850" pageHeight="1100" math="0" shadow="0">
      <root>
        <mxCell id="0" />
        <mxCell id="1" parent="0" />
        <mxCell id="mN8_UvwZ1Ig16Rc07nt--3" value="" style="edgeStyle=orthogonalEdgeStyle;rounded=0;orthogonalLoop=1;jettySize=auto;html=1;" edge="1" parent="1" source="mN8_UvwZ1Ig16Rc07nt--1" target="mN8_UvwZ1Ig16Rc07nt--2">
          <mxGeometry relative="1" as="geometry" />
        </mxCell>
        <mxCell id="mN8_UvwZ1Ig16Rc07nt--1" value="Start with a 3D array, with the first dimension being for test set entry, second dimension being for a given candidate, and the third dimension being for a given reference." style="rounded=1;whiteSpace=wrap;html=1;" vertex="1" parent="1">
          <mxGeometry x="50" y="60" width="250" height="90" as="geometry" />
        </mxCell>
        <mxCell id="mN8_UvwZ1Ig16Rc07nt--5" value="" style="edgeStyle=orthogonalEdgeStyle;rounded=0;orthogonalLoop=1;jettySize=auto;html=1;" edge="1" parent="1" source="mN8_UvwZ1Ig16Rc07nt--2" target="mN8_UvwZ1Ig16Rc07nt--4">
          <mxGeometry relative="1" as="geometry" />
        </mxCell>
        <mxCell id="mN8_UvwZ1Ig16Rc07nt--2" value="For each test set entry, extract the F1 score for each candidate and reference pair, and store the F1 and reference index as a tuple in a candidate-specific priority queue" style="whiteSpace=wrap;html=1;rounded=1;" vertex="1" parent="1">
          <mxGeometry x="58.75" y="180" width="232.5" height="90" as="geometry" />
        </mxCell>
        <mxCell id="mN8_UvwZ1Ig16Rc07nt--7" value="" style="edgeStyle=orthogonalEdgeStyle;rounded=0;orthogonalLoop=1;jettySize=auto;html=1;" edge="1" parent="1" source="mN8_UvwZ1Ig16Rc07nt--4" target="mN8_UvwZ1Ig16Rc07nt--6">
          <mxGeometry relative="1" as="geometry" />
        </mxCell>
        <mxCell id="mN8_UvwZ1Ig16Rc07nt--4" value="Next, for each test set entry, match candidates and references to get the best overall F1 score using the priority queues. This continues until all are matched." style="whiteSpace=wrap;html=1;rounded=1;" vertex="1" parent="1">
          <mxGeometry x="75" y="340" width="200" height="95" as="geometry" />
        </mxCell>
        <mxCell id="mN8_UvwZ1Ig16Rc07nt--9" value="" style="edgeStyle=orthogonalEdgeStyle;rounded=0;orthogonalLoop=1;jettySize=auto;html=1;" edge="1" parent="1" source="mN8_UvwZ1Ig16Rc07nt--6" target="mN8_UvwZ1Ig16Rc07nt--8">
          <mxGeometry relative="1" as="geometry" />
        </mxCell>
        <mxCell id="mN8_UvwZ1Ig16Rc07nt--6" value="Matches should be made as follows: if a reference has not been seen before, if the currently considered F1 score is higher than the highest F1 score we have seen so far for a reference, or if we get a better overall F1 score by replacing the currently stored F1 score. Check this by seeing if current F1 and next F1 for stored candidate is higher than stored F1 and next F1 for current candidate." style="whiteSpace=wrap;html=1;rounded=1;" vertex="1" parent="1">
          <mxGeometry x="310" y="312.5" width="289" height="150" as="geometry" />
        </mxCell>
        <mxCell id="mN8_UvwZ1Ig16Rc07nt--11" value="" style="edgeStyle=orthogonalEdgeStyle;rounded=0;orthogonalLoop=1;jettySize=auto;html=1;" edge="1" parent="1" source="mN8_UvwZ1Ig16Rc07nt--8" target="mN8_UvwZ1Ig16Rc07nt--10">
          <mxGeometry relative="1" as="geometry" />
        </mxCell>
        <mxCell id="mN8_UvwZ1Ig16Rc07nt--8" value="After matches have been made for the entry, sum the correct, incorrect, partial, missed, spurious, possible and actual values. Additionally, average the precision, recall and F1." style="whiteSpace=wrap;html=1;rounded=1;" vertex="1" parent="1">
          <mxGeometry x="316.75" y="195" width="275.5" height="60" as="geometry" />
        </mxCell>
        <mxCell id="mN8_UvwZ1Ig16Rc07nt--13" value="" style="edgeStyle=orthogonalEdgeStyle;rounded=0;orthogonalLoop=1;jettySize=auto;html=1;" edge="1" parent="1" source="mN8_UvwZ1Ig16Rc07nt--10" target="mN8_UvwZ1Ig16Rc07nt--12">
          <mxGeometry relative="1" as="geometry" />
        </mxCell>
        <mxCell id="mN8_UvwZ1Ig16Rc07nt--10" value="After the above procedures have been completed for all test set entries, sum or average scores as detailed above across all test set entries to get our final scores." style="whiteSpace=wrap;html=1;rounded=1;" vertex="1" parent="1">
          <mxGeometry x="312.12" y="75" width="284.75" height="60" as="geometry" />
        </mxCell>
        <mxCell id="mN8_UvwZ1Ig16Rc07nt--12" value="Display scores to the terminal window and store them in output files." style="whiteSpace=wrap;html=1;rounded=1;" vertex="1" parent="1">
          <mxGeometry x="650.01" y="67.5" width="120" height="75" as="geometry" />
        </mxCell>
      </root>
    </mxGraphModel>
  </diagram>
</mxfile>
